<svg width="22" height="22" viewBox="0 0 22 22" fill="none" xmlns="http://www.w3.org/2000/svg">
<path fill-rule="evenodd" clip-rule="evenodd" d="M13.0347 2.03468C13.6674 1.40194 14.5607 1.14581 15.5833 1.14581H17.4166C18.4393 1.14581 19.3325 1.40194 19.9653 2.03468C20.598 2.66742 20.8541 3.56067 20.8541 4.58331V6.41665C20.8541 7.43929 20.598 8.33254 19.9653 8.96528C19.3325 9.59802 18.4393 9.85415 17.4166 9.85415H15.5833C14.5607 9.85415 13.6674 9.59802 13.0347 8.96528C12.4019 8.33254 12.1458 7.43929 12.1458 6.41665V4.58331C12.1458 3.56067 12.4019 2.66742 13.0347 2.03468ZM14.0069 3.00695C13.723 3.29088 13.5208 3.77262 13.5208 4.58331V6.41665C13.5208 7.22734 13.723 7.70908 14.0069 7.99301C14.2909 8.27694 14.7726 8.47915 15.5833 8.47915H17.4166C18.2273 8.47915 18.7091 8.27694 18.993 7.99301C19.2769 7.70908 19.4791 7.22734 19.4791 6.41665V4.58331C19.4791 3.77262 19.2769 3.29088 18.993 3.00695C18.7091 2.72302 18.2273 2.52081 17.4166 2.52081H15.5833C14.7726 2.52081 14.2909 2.72302 14.0069 3.00695Z" fill="#7216F4"/>
<path fill-rule="evenodd" clip-rule="evenodd" d="M2.03468 13.0347C2.66742 12.4019 3.56067 12.1458 4.58331 12.1458H6.41665C7.43929 12.1458 8.33254 12.4019 8.96528 13.0347C9.59802 13.6674 9.85415 14.5607 9.85415 15.5833V17.4166C9.85415 18.4393 9.59802 19.3325 8.96528 19.9653C8.33254 20.598 7.43929 20.8541 6.41665 20.8541H4.58331C3.56067 20.8541 2.66742 20.598 2.03468 19.9653C1.40194 19.3325 1.14581 18.4393 1.14581 17.4166V15.5833C1.14581 14.5607 1.40194 13.6674 2.03468 13.0347ZM3.00695 14.0069C2.72302 14.2909 2.52081 14.7726 2.52081 15.5833V17.4166C2.52081 18.2273 2.72302 18.7091 3.00695 18.993C3.29088 19.2769 3.77262 19.4791 4.58331 19.4791H6.41665C7.22734 19.4791 7.70908 19.2769 7.99301 18.993C8.27694 18.7091 8.47915 18.2273 8.47915 17.4166V15.5833C8.47915 14.7726 8.27694 14.2909 7.99301 14.0069C7.70908 13.723 7.22734 13.5208 6.41665 13.5208H4.58331C3.77262 13.5208 3.29088 13.723 3.00695 14.0069Z" fill="#7216F4"/>
<path fill-rule="evenodd" clip-rule="evenodd" d="M5.49998 2.52081C3.85463 2.52081 2.52081 3.85463 2.52081 5.49998C2.52081 7.14533 3.85463 8.47915 5.49998 8.47915C7.14533 8.47915 8.47915 7.14533 8.47915 5.49998C8.47915 3.85463 7.14533 2.52081 5.49998 2.52081ZM1.14581 5.49998C1.14581 3.09524 3.09524 1.14581 5.49998 1.14581C7.90472 1.14581 9.85415 3.09524 9.85415 5.49998C9.85415 7.90472 7.90472 9.85415 5.49998 9.85415C3.09524 9.85415 1.14581 7.90472 1.14581 5.49998Z" fill="#7216F4"/>
<path fill-rule="evenodd" clip-rule="evenodd" d="M16.5 13.5208C14.8546 13.5208 13.5208 14.8546 13.5208 16.5C13.5208 18.1453 14.8546 19.4791 16.5 19.4791C18.1453 19.4791 19.4791 18.1453 19.4791 16.5C19.4791 14.8546 18.1453 13.5208 16.5 13.5208ZM12.1458 16.5C12.1458 14.0952 14.0952 12.1458 16.5 12.1458C18.9047 12.1458 20.8541 14.0952 20.8541 16.5C20.8541 18.9047 18.9047 20.8541 16.5 20.8541C14.0952 20.8541 12.1458 18.9047 12.1458 16.5Z" fill="#7216F4"/>
</svg>
