<svg width="22" height="22" viewBox="0 0 22 22" fill="none" xmlns="http://www.w3.org/2000/svg">
<path fill-rule="evenodd" clip-rule="evenodd" d="M4.37216 4.37222C5.38917 3.3552 6.89882 2.97919 8.79996 2.97919H13.2C15.1011 2.97919 16.6107 3.3552 17.6278 4.37222C18.6448 5.38923 19.0208 6.89888 19.0208 8.80002C19.0208 9.17972 18.713 9.48752 18.3333 9.48752C17.9536 9.48752 17.6458 9.17972 17.6458 8.80002C17.6458 7.03449 17.2885 5.97748 16.6555 5.34449C16.0225 4.7115 14.9655 4.35419 13.2 4.35419H8.79996C7.03443 4.35419 5.97742 4.7115 5.34443 5.34449C4.71144 5.97748 4.35413 7.03449 4.35413 8.80002V13.2C4.35413 14.9655 4.71144 16.0226 5.34443 16.6556C5.97742 17.2885 7.03443 17.6459 8.79996 17.6459C9.17966 17.6459 9.48746 17.9537 9.48746 18.3334C9.48746 18.713 9.17966 19.0209 8.79996 19.0209C6.89882 19.0209 5.38917 18.6448 4.37216 17.6278C3.35514 16.6108 2.97913 15.1012 2.97913 13.2V8.80002C2.97913 6.89888 3.35514 5.38923 4.37216 4.37222Z" fill="black"/>
<path fill-rule="evenodd" clip-rule="evenodd" d="M6.67528 6.67534C7.38292 5.9677 8.41132 5.72919 9.62496 5.72919H12.375C13.7134 5.72919 14.8273 6.01675 15.5281 6.9086C15.7626 7.20716 15.7108 7.63936 15.4122 7.87395C15.1137 8.10853 14.6814 8.05667 14.4469 7.75811C14.1393 7.36662 13.5665 7.10419 12.375 7.10419H9.62496C8.54693 7.10419 7.97117 7.324 7.64755 7.64761C7.32394 7.97123 7.10413 8.54699 7.10413 9.62502V12.375C7.10413 13.5668 7.36671 14.1423 7.75265 14.4499C8.04956 14.6866 8.0984 15.1191 7.86173 15.416C7.62506 15.713 7.19251 15.7618 6.8956 15.5251C6.01654 14.8244 5.72913 13.7133 5.72913 12.375V9.62502C5.72913 8.41138 5.96764 7.38298 6.67528 6.67534Z" fill="black"/>
<path fill-rule="evenodd" clip-rule="evenodd" d="M7.34247 1.14584C7.72216 1.14584 8.02997 1.45365 8.02997 1.83334V3.66668C8.02997 4.04637 7.72216 4.35418 7.34247 4.35418C6.96277 4.35418 6.65497 4.04637 6.65497 3.66668V1.83334C6.65497 1.45365 6.96277 1.14584 7.34247 1.14584Z" fill="black"/>
<path fill-rule="evenodd" clip-rule="evenodd" d="M11 1.14584C11.3797 1.14584 11.6875 1.45365 11.6875 1.83334V3.66668C11.6875 4.04637 11.3797 4.35418 11 4.35418C10.6203 4.35418 10.3125 4.04637 10.3125 3.66668V1.83334C10.3125 1.45365 10.6203 1.14584 11 1.14584Z" fill="black"/>
<path fill-rule="evenodd" clip-rule="evenodd" d="M14.6666 1.14584C15.0463 1.14584 15.3541 1.45365 15.3541 1.83334V3.66668C15.3541 4.04637 15.0463 4.35418 14.6666 4.35418C14.2869 4.35418 13.9791 4.04637 13.9791 3.66668V1.83334C13.9791 1.45365 14.2869 1.14584 14.6666 1.14584Z" fill="black"/>
<path fill-rule="evenodd" clip-rule="evenodd" d="M17.6458 7.33334C17.6458 6.95365 17.9536 6.64584 18.3333 6.64584H20.1666C20.5463 6.64584 20.8541 6.95365 20.8541 7.33334C20.8541 7.71304 20.5463 8.02084 20.1666 8.02084H18.3333C17.9536 8.02084 17.6458 7.71304 17.6458 7.33334Z" fill="black"/>
<path fill-rule="evenodd" clip-rule="evenodd" d="M7.34247 17.6458C7.72216 17.6458 8.02997 17.9536 8.02997 18.3333V20.1667C8.02997 20.5464 7.72216 20.8542 7.34247 20.8542C6.96277 20.8542 6.65497 20.5464 6.65497 20.1667V18.3333C6.65497 17.9536 6.96277 17.6458 7.34247 17.6458Z" fill="black"/>
<path fill-rule="evenodd" clip-rule="evenodd" d="M1.14581 7.33334C1.14581 6.95365 1.45362 6.64584 1.83331 6.64584H3.66665C4.04634 6.64584 4.35415 6.95365 4.35415 7.33334C4.35415 7.71304 4.04634 8.02084 3.66665 8.02084H1.83331C1.45362 8.02084 1.14581 7.71304 1.14581 7.33334Z" fill="black"/>
<path fill-rule="evenodd" clip-rule="evenodd" d="M1.14581 11C1.14581 10.6203 1.45362 10.3125 1.83331 10.3125H3.66665C4.04634 10.3125 4.35415 10.6203 4.35415 11C4.35415 11.3797 4.04634 11.6875 3.66665 11.6875H1.83331C1.45362 11.6875 1.14581 11.3797 1.14581 11Z" fill="black"/>
<path fill-rule="evenodd" clip-rule="evenodd" d="M1.14581 14.6667C1.14581 14.287 1.45362 13.9792 1.83331 13.9792H3.66665C4.04634 13.9792 4.35415 14.287 4.35415 14.6667C4.35415 15.0464 4.04634 15.3542 3.66665 15.3542H1.83331C1.45362 15.3542 1.14581 15.0464 1.14581 14.6667Z" fill="black"/>
<path fill-rule="evenodd" clip-rule="evenodd" d="M15.3175 14.8134C14.8922 14.8134 14.5475 15.1581 14.5475 15.5834C14.5475 16.0086 14.8922 16.3534 15.3175 16.3534C15.7427 16.3534 16.0875 16.0086 16.0875 15.5834C16.0875 15.1581 15.7427 14.8134 15.3175 14.8134ZM13.1725 15.5834C13.1725 14.3987 14.1328 13.4384 15.3175 13.4384C16.5021 13.4384 17.4625 14.3987 17.4625 15.5834C17.4625 16.768 16.5021 17.7284 15.3175 17.7284C14.1328 17.7284 13.1725 16.768 13.1725 15.5834Z" fill="black"/>
<path fill-rule="evenodd" clip-rule="evenodd" d="M13.8651 11.755C13.8208 11.6807 13.7417 11.675 13.6983 11.7008L13.6927 11.7041L12.8496 12.1951C12.7444 12.2543 12.7038 12.3967 12.7672 12.5053L12.7685 12.5075C13.0619 13.0148 13.1746 13.6346 12.8655 14.1719C12.556 14.7098 11.963 14.9233 11.3758 14.9233C11.2514 14.9233 11.1467 15.028 11.1467 15.1525V16.005C11.1467 16.1457 11.2555 16.2362 11.3633 16.2343L11.3758 16.2341C11.963 16.2341 12.556 16.4477 12.8655 16.9856C13.1746 17.5229 13.0619 18.1427 12.7685 18.65L12.7672 18.6522C12.7077 18.7542 12.7368 18.8964 12.8586 18.9676C12.8585 18.9676 12.8587 18.9677 12.8586 18.9676L13.6892 19.4514C13.7488 19.4845 13.8282 19.4645 13.8651 19.4025L13.8663 19.4005L13.9187 19.3131C14.2119 18.8091 14.6906 18.4044 15.3083 18.4044C15.9261 18.4044 16.4048 18.8091 16.698 19.3132L16.7516 19.4025C16.7958 19.4768 16.875 19.4825 16.9184 19.4567L16.924 19.4534L17.7671 18.9624C17.8722 18.9032 17.9128 18.7608 17.8495 18.6522L17.8482 18.65C17.5548 18.1427 17.442 17.5229 17.7512 16.9856C18.0606 16.4477 18.6537 16.2342 19.2408 16.2342C19.3653 16.2342 19.47 16.1295 19.47 16.005V15.1525C19.47 15.028 19.3653 14.9233 19.2408 14.9233C18.6537 14.9233 18.0606 14.7098 17.7512 14.1719C17.442 13.6346 17.5548 13.0148 17.8482 12.5075L17.8495 12.5053C17.909 12.4032 17.8798 12.261 17.7579 12.1898C17.7579 12.1897 17.7579 12.1898 17.7579 12.1898L16.9275 11.7061C16.8678 11.673 16.7885 11.693 16.7516 11.755L16.7504 11.7571L16.698 11.8444C16.4048 12.3484 15.9261 12.7531 15.3083 12.7531C14.6906 12.7531 14.2119 12.3484 13.9187 11.8444L13.8651 11.755ZM15.0459 11.0505C14.6321 10.3567 13.724 10.0878 12.9983 10.5173L12.1703 10.9995C11.3999 11.4366 11.1308 12.4272 11.5787 13.1967C11.6785 13.3696 11.6767 13.4579 11.6721 13.4852C11.6506 13.5029 11.5751 13.5483 11.3758 13.5483C10.492 13.5483 9.77167 14.2686 9.77167 15.1525V16.005C9.77167 16.8884 10.4837 17.6212 11.3806 17.6092C11.5763 17.6099 11.6508 17.6547 11.6721 17.6723C11.6767 17.6996 11.6785 17.7879 11.5787 17.9608C11.126 18.7385 11.4086 19.7136 12.1661 20.1555L13.0007 20.6416L13.0056 20.6444C13.7153 21.05 14.6244 20.8136 15.0459 20.107C15.0461 20.1066 15.0464 20.1062 15.0466 20.1058L15.1004 20.0162L15.106 20.0067C15.2052 19.8351 15.2819 19.7916 15.3083 19.7814C15.3348 19.7916 15.4115 19.8351 15.5107 20.0067L15.5701 20.1058C15.5703 20.1062 15.5705 20.1066 15.5708 20.107C15.9846 20.8008 16.8927 21.0697 17.6184 20.6402L18.4463 20.158C19.2168 19.7209 19.4858 18.7303 19.038 17.9608C18.9382 17.788 18.94 17.6996 18.9446 17.6723C18.966 17.6546 19.0416 17.6092 19.2408 17.6092C20.1247 17.6092 20.845 16.8889 20.845 16.005V15.1525C20.845 14.2686 20.1247 13.5483 19.2408 13.5483C19.0416 13.5483 18.966 13.5029 18.9446 13.4852C18.94 13.4579 18.9382 13.3695 19.038 13.1966C19.4906 12.419 19.208 11.4438 18.4506 11.002L17.616 10.5159L17.6111 10.5131C16.9013 10.1075 15.9922 10.3439 15.5708 11.0505C15.5705 11.0509 15.5703 11.0513 15.5701 11.0517L15.5163 11.1413L15.5107 11.1508C15.4115 11.3224 15.3348 11.3659 15.3083 11.3761C15.2819 11.3659 15.2052 11.3224 15.106 11.1508L15.0466 11.0517C15.0464 11.0513 15.0461 11.0509 15.0459 11.0505Z" fill="black"/>
</svg>
