<svg width="22" height="22" viewBox="0 0 22 22" fill="none" xmlns="http://www.w3.org/2000/svg">
<path fill-rule="evenodd" clip-rule="evenodd" d="M11 2.52084C6.31968 2.52084 2.52081 6.31971 2.52081 11C2.52081 15.6803 6.31968 19.4792 11 19.4792C15.6803 19.4792 19.4791 15.6803 19.4791 11C19.4791 6.31971 15.6803 2.52084 11 2.52084ZM1.14581 11C1.14581 5.56031 5.56028 1.14584 11 1.14584C16.4397 1.14584 20.8541 5.56031 20.8541 11C20.8541 16.4397 16.4397 20.8542 11 20.8542C5.56028 20.8542 1.14581 16.4397 1.14581 11Z" fill="black"/>
<path fill-rule="evenodd" clip-rule="evenodd" d="M10.6608 6.19669C11.0405 6.19669 11.3483 6.50449 11.3483 6.88419V10.6425C11.3483 10.7833 11.4021 10.9873 11.5216 11.1968C11.6411 11.4064 11.7892 11.5564 11.9096 11.6277L11.9115 11.6288L11.9115 11.6288L14.7531 13.3247C15.0792 13.5192 15.1858 13.9413 14.9912 14.2673C14.7966 14.5934 14.3746 14.7 14.0485 14.5054L11.2087 12.8106C11.2084 12.8104 11.208 12.8103 11.2077 12.8101C10.8336 12.5881 10.5329 12.2387 10.3272 11.878C10.1212 11.5169 9.97333 11.0793 9.97333 10.6425V6.88419C9.97333 6.50449 10.2811 6.19669 10.6608 6.19669Z" fill="black"/>
</svg>
