<svg width="22" height="22" viewBox="0 0 22 22" fill="none" xmlns="http://www.w3.org/2000/svg">
<path fill-rule="evenodd" clip-rule="evenodd" d="M16.4175 2.52083C15.4864 2.52083 14.74 3.26719 14.74 4.19833C14.74 5.09476 15.4294 5.81722 16.3022 5.87383C16.3754 5.86733 16.4504 5.86733 16.5236 5.87383C17.3949 5.81728 18.0873 5.09574 18.095 4.19588C18.0937 3.27329 17.3461 2.52083 16.4175 2.52083ZM13.365 4.19833C13.365 2.5078 14.727 1.14583 16.4175 1.14583C18.1098 1.14583 19.47 2.51871 19.47 4.19833V4.20324H19.47C19.4582 5.85226 18.1602 7.19113 16.5249 7.25038C16.4875 7.25174 16.45 7.25003 16.4129 7.24529C16.3758 7.25003 16.3383 7.25174 16.3009 7.25038C14.6665 7.19116 13.365 5.85202 13.365 4.19833Z" fill="black"/>
<path fill-rule="evenodd" clip-rule="evenodd" d="M15.4097 8.11365C16.8033 7.86951 18.3924 8.10227 19.5476 8.86882L19.5488 8.86964C20.3384 9.39604 20.8244 10.1588 20.8244 11.0092C20.8244 11.8595 20.3384 12.6223 19.5488 13.1487C18.4022 13.9162 16.8321 14.1481 15.442 13.9147C15.0675 13.8518 14.8149 13.4973 14.8778 13.1228C14.9407 12.7484 15.2952 12.4958 15.6696 12.5587C16.7907 12.7469 17.9883 12.539 18.7849 12.0055L18.7861 12.0046C19.289 11.6694 19.4494 11.2955 19.4494 11.0092C19.4494 10.723 19.2892 10.3493 18.7868 10.0141C17.9803 9.47931 16.7647 9.27221 15.6469 9.46802C15.2729 9.53354 14.9166 9.28347 14.8511 8.90947C14.7856 8.53547 15.0357 8.17917 15.4097 8.11365Z" fill="black"/>
<path fill-rule="evenodd" clip-rule="evenodd" d="M2.5025 4.19833C2.5025 2.5187 3.86274 1.14583 5.555 1.14583C7.24553 1.14583 8.6075 2.5078 8.6075 4.19833C8.6075 5.85202 7.30598 7.19116 5.67156 7.25038C5.63415 7.25174 5.5967 7.25003 5.55959 7.24529C5.52248 7.25003 5.48503 7.25174 5.44761 7.25038C3.81234 7.19113 2.5143 5.85226 2.50252 4.20324L2.5025 4.19833ZM3.8775 4.19588C3.88518 5.09575 4.57763 5.81728 5.4489 5.87383C5.52211 5.86733 5.59708 5.86733 5.67028 5.87383C6.54305 5.81722 7.2325 5.09476 7.2325 4.19833C7.2325 3.26719 6.48614 2.52083 5.555 2.52083C4.62642 2.52083 3.87882 3.27329 3.8775 4.19588Z" fill="black"/>
<path fill-rule="evenodd" clip-rule="evenodd" d="M3.18574 10.0141C3.99219 9.47931 5.20778 9.27221 6.32554 9.46802C6.69954 9.53354 7.05584 9.28347 7.12136 8.90947C7.18688 8.53547 6.9368 8.17917 6.5628 8.11365C5.16918 7.86951 3.58011 8.10227 2.42489 8.86882L2.42489 8.86882L2.42365 8.86964C1.63405 9.39604 1.14813 10.1588 1.14813 11.0092C1.14813 11.8593 1.63379 12.6219 2.42303 13.1483C3.56975 13.9161 5.14013 14.1481 6.5305 13.9147C6.90495 13.8518 7.15755 13.4973 7.09468 13.1228C7.03182 12.7484 6.6773 12.4958 6.30285 12.5587C5.1818 12.7469 3.98417 12.539 3.18761 12.0055L3.18636 12.0046C2.68347 11.6694 2.52313 11.2955 2.52313 11.0092C2.52313 10.723 2.68333 10.3493 3.18574 10.0141Z" fill="black"/>
<path fill-rule="evenodd" clip-rule="evenodd" d="M10.9175 9.36833C9.98641 9.36833 9.24005 10.1147 9.24005 11.0458C9.24005 11.9423 9.92951 12.6647 10.8023 12.7213C10.8765 12.7147 10.9526 12.7148 11.0267 12.7216C11.8909 12.6721 12.5873 11.9481 12.595 11.0434C12.5937 10.1208 11.8461 9.36833 10.9175 9.36833ZM7.86505 11.0458C7.86505 9.35531 9.22702 7.99333 10.9175 7.99333C12.6098 7.99333 13.9701 9.36621 13.9701 11.0458V11.0507H13.97C13.9583 12.6953 12.6636 14.0504 11.02 14.098C10.9842 14.0991 10.9484 14.0973 10.913 14.0928C10.8759 14.0975 10.8384 14.0992 10.801 14.0979C9.16658 14.0387 7.86505 12.6995 7.86505 11.0458Z" fill="black"/>
<path fill-rule="evenodd" clip-rule="evenodd" d="M11.0035 14.8821C12.0746 14.8821 13.1827 15.1488 14.0489 15.7263C14.8385 16.2527 15.3244 17.0155 15.3244 17.8658C15.3244 18.7161 14.8386 19.4788 14.0492 20.0051C13.1793 20.5867 12.0716 20.8565 11 20.8565C9.92845 20.8565 8.82076 20.5867 7.95088 20.0052C7.16145 19.4788 6.67566 18.7161 6.67566 17.8658C6.67566 17.0155 7.16157 16.2527 7.95118 15.7263L7.95283 15.7252L7.95283 15.7252C8.82273 15.1489 9.93215 14.8821 11.0035 14.8821ZM8.71308 16.8709C8.21082 17.206 8.05066 17.5797 8.05066 17.8658C8.05066 18.1521 8.21099 18.526 8.71389 18.8613L8.71471 18.8618C9.31142 19.2609 10.1377 19.4815 11 19.4815C11.8624 19.4815 12.6886 19.2609 13.2854 18.8618L13.2862 18.8613C13.7891 18.526 13.9494 18.1521 13.9494 17.8658C13.9494 17.5795 13.7891 17.2056 13.2862 16.8704C12.6949 16.4762 11.8688 16.2571 11.0035 16.2571C10.1387 16.2571 9.30978 16.4759 8.71308 16.8709Z" fill="black"/>
</svg>
