<svg width="14" height="14" viewBox="0 0 14 14" fill="none" xmlns="http://www.w3.org/2000/svg">
<path fill-rule="evenodd" clip-rule="evenodd" d="M5.0604 3.4939C5.0604 3.25227 5.25627 3.0564 5.4979 3.0564L10.5054 3.0564C10.6214 3.0564 10.7327 3.10249 10.8148 3.18454C10.8968 3.26659 10.9429 3.37786 10.9429 3.4939L10.9429 8.50139C10.9429 8.74302 10.747 8.93889 10.5054 8.93889C10.2638 8.93889 10.0679 8.74302 10.0679 8.50139L10.0679 3.9314L5.4979 3.9314C5.25627 3.9314 5.0604 3.73552 5.0604 3.4939Z" fill="#1A932E"/>
<path fill-rule="evenodd" clip-rule="evenodd" d="M3.1839 10.8154C3.01305 10.6445 3.01305 10.3675 3.1839 10.1967L10.1259 3.25466C10.2968 3.08381 10.5738 3.08381 10.7446 3.25466C10.9155 3.42552 10.9155 3.70253 10.7446 3.87338L3.80262 10.8154C3.63177 10.9863 3.35476 10.9863 3.1839 10.8154Z" fill="#1A932E"/>
</svg>
