<svg width="14" height="14" viewBox="0 0 14 14" fill="none" xmlns="http://www.w3.org/2000/svg">
<path fill-rule="evenodd" clip-rule="evenodd" d="M10.506 5.06141C10.7476 5.06141 10.9435 5.25728 10.9435 5.49891L10.9435 10.5064C10.9435 10.6224 10.8974 10.7337 10.8154 10.8158C10.7333 10.8978 10.6221 10.9439 10.506 10.9439L5.49853 10.9439C5.25691 10.9439 5.06103 10.748 5.06103 10.5064C5.06103 10.2648 5.25691 10.0689 5.49853 10.0689L10.0685 10.0689L10.0685 5.49891C10.0685 5.25728 10.2644 5.06141 10.506 5.06141Z" fill="#EE201C"/>
<path fill-rule="evenodd" clip-rule="evenodd" d="M3.18452 3.18485C3.35538 3.01399 3.63239 3.01399 3.80324 3.18485L10.7453 10.1269C10.9161 10.2977 10.9161 10.5747 10.7453 10.7456C10.5744 10.9164 10.2974 10.9164 10.1265 10.7456L3.18452 3.80357C3.01367 3.63271 3.01367 3.3557 3.18452 3.18485Z" fill="#EE201C"/>
</svg>
