<svg width="46" height="46" viewBox="0 0 46 46" fill="none" xmlns="http://www.w3.org/2000/svg">
<rect width="46" height="46" rx="23" fill="#70A1E6"/>
<path fill-rule="evenodd" clip-rule="evenodd" d="M23 14.5208C18.3197 14.5208 14.5208 18.3197 14.5208 23C14.5208 27.6803 18.3197 31.4791 23 31.4791C27.6803 31.4791 31.4792 27.6803 31.4792 23C31.4792 18.3197 27.6803 14.5208 23 14.5208ZM13.1458 23C13.1458 17.5603 17.5603 13.1458 23 13.1458C28.4397 13.1458 32.8542 17.5603 32.8542 23C32.8542 28.4397 28.4397 32.8541 23 32.8541C17.5603 32.8541 13.1458 28.4397 13.1458 23Z" fill="#F1F1F1"/>
<path fill-rule="evenodd" clip-rule="evenodd" d="M22.6609 18.1967C23.0406 18.1967 23.3484 18.5045 23.3484 18.8842V22.6425C23.3484 22.7832 23.4021 22.9872 23.5216 23.1968C23.6411 23.4064 23.7893 23.5564 23.9097 23.6277L23.9115 23.6288L23.9115 23.6288L26.7532 25.3246C27.0792 25.5192 27.1858 25.9413 26.9912 26.2673C26.7966 26.5934 26.3746 26.6999 26.0485 26.5054L23.2087 24.8106C23.2084 24.8104 23.2081 24.8102 23.2077 24.81C22.8336 24.588 22.5329 24.2387 22.3272 23.878C22.1213 23.5169 21.9734 23.0792 21.9734 22.6425V18.8842C21.9734 18.5045 22.2812 18.1967 22.6609 18.1967Z" fill="#F1F1F1"/>
</svg>
