<svg width="46" height="46" viewBox="0 0 46 46" fill="none" xmlns="http://www.w3.org/2000/svg">
<rect width="46" height="46" rx="23" fill="#7216F4"/>
<path fill-rule="evenodd" clip-rule="evenodd" d="M14.1757 18.2491C14.9874 17.2842 16.3789 16.8125 18.4167 16.8125H27.5833C29.6211 16.8125 31.0126 17.2842 31.8243 18.2491C32.628 19.2047 32.7045 20.4601 32.5756 21.6306L31.8878 28.9674C31.7868 29.9098 31.5503 30.943 30.7088 31.7117C29.8736 32.4748 28.5796 32.8542 26.6667 32.8542H19.3333C17.4204 32.8542 16.1264 32.4748 15.2912 31.7117C14.4497 30.943 14.2132 29.9098 14.1122 28.9674L14.1113 28.9583L13.4244 21.6306C13.2955 20.4601 13.372 19.2047 14.1757 18.2491ZM15.228 19.1342C14.7956 19.6483 14.6739 20.4208 14.7917 21.4852L14.7929 21.4967L15.4799 28.8254C15.5716 29.6773 15.7615 30.279 16.2186 30.6966C16.6828 31.1206 17.5613 31.4792 19.3333 31.4792H26.6667C28.4387 31.4792 29.3172 31.1206 29.7814 30.6966C30.2385 30.279 30.4284 29.6773 30.5201 28.8254L31.2082 21.4852C31.326 20.4208 31.2044 19.6483 30.772 19.1342C30.3461 18.6279 29.4597 18.1875 27.5833 18.1875H18.4167C16.5403 18.1875 15.6539 18.6279 15.228 19.1342Z" fill="white"/>
<path fill-rule="evenodd" clip-rule="evenodd" d="M20.0609 15.7128C20.0219 16.0111 20.0208 16.3501 20.0208 16.7666V17.5C20.0208 17.8797 19.713 18.1875 19.3333 18.1875C18.9536 18.1875 18.6458 17.8797 18.6458 17.5L18.6458 16.7428C18.6458 16.3546 18.6458 15.9305 18.6975 15.5348C18.751 15.1248 18.8657 14.6895 19.1344 14.3007C19.6998 13.4827 20.7354 13.1458 22.2667 13.1458H23.7333C25.2646 13.1458 26.3002 13.4827 26.8656 14.3007C27.1343 14.6895 27.249 15.1248 27.3025 15.5348C27.3542 15.9305 27.3542 16.3546 27.3542 16.7428L27.3542 17.5C27.3542 17.8797 27.0464 18.1875 26.6667 18.1875C26.287 18.1875 25.9792 17.8797 25.9792 17.5V16.7666C25.9792 16.3501 25.9781 16.0111 25.9391 15.7128C25.901 15.4207 25.8324 15.2241 25.7344 15.0824C25.5664 14.8394 25.1354 14.5208 23.7333 14.5208H22.2667C20.8646 14.5208 20.4336 14.8394 20.2656 15.0824C20.1676 15.2241 20.099 15.4207 20.0609 15.7128Z" fill="white"/>
<path fill-rule="evenodd" clip-rule="evenodd" d="M21.8549 23.6882C21.8542 23.7537 21.8542 23.8283 21.8542 23.9167V24.8608C21.8542 25.1189 21.8564 25.3087 21.8788 25.4698C21.9004 25.6246 21.9346 25.7 21.9636 25.7409C21.996 25.7865 22.1572 25.9792 23 25.9792C23.8466 25.9792 24.0059 25.7847 24.0376 25.7395C24.0668 25.6978 24.1009 25.6213 24.1221 25.4646C24.1441 25.3017 24.1458 25.111 24.1458 24.8517V23.9167C24.1458 23.8283 24.1458 23.7537 24.1451 23.6882C24.0797 23.6875 24.0051 23.6875 23.9167 23.6875H22.0833C21.9949 23.6875 21.9203 23.6875 21.8549 23.6882ZM22.0532 22.3125C22.0633 22.3125 22.0733 22.3125 22.0833 22.3125H23.9167C23.9267 22.3125 23.9367 22.3125 23.9468 22.3125C24.1495 22.3125 24.3549 22.3124 24.5225 22.331C24.6934 22.35 24.9772 22.4008 25.2049 22.6285C25.4326 22.8561 25.4833 23.1399 25.5023 23.3108C25.5209 23.4784 25.5209 23.6839 25.5208 23.8866C25.5208 23.8966 25.5208 23.9066 25.5208 23.9167V24.862C25.5208 25.1 25.5209 25.3817 25.4847 25.649C25.4472 25.9263 25.365 26.241 25.1639 26.5283C24.7349 27.1407 23.9775 27.3542 23 27.3542C22.0278 27.3542 21.2724 27.1435 20.8418 26.536C20.6394 26.2504 20.5556 25.9367 20.517 25.6593C20.4792 25.3881 20.4792 25.1024 20.4792 24.8608V23.9167C20.4792 23.9066 20.4792 23.8966 20.4792 23.8866C20.4791 23.6839 20.4791 23.4784 20.4977 23.3108C20.5167 23.1399 20.5674 22.8561 20.7951 22.6285C21.0228 22.4008 21.3066 22.35 21.4775 22.331C21.6451 22.3124 21.8505 22.3125 22.0532 22.3125Z" fill="white"/>
<path fill-rule="evenodd" clip-rule="evenodd" d="M32.4018 21.6789C32.6252 21.986 32.5573 22.416 32.2502 22.6393C30.0354 24.2501 27.505 25.2081 24.9192 25.5337C24.5425 25.5812 24.1987 25.3143 24.1512 24.9375C24.1038 24.5608 24.3707 24.217 24.7474 24.1695C27.1117 23.8718 29.4213 22.9965 31.4415 21.5273C31.7485 21.304 32.1785 21.3719 32.4018 21.6789Z" fill="white"/>
<path fill-rule="evenodd" clip-rule="evenodd" d="M13.8343 21.9425C14.0488 21.6292 14.4766 21.549 14.79 21.7635C16.7598 23.1117 18.9811 23.9243 21.2432 24.1776C21.6205 24.2198 21.8921 24.56 21.8499 24.9373C21.8076 25.3147 21.4675 25.5863 21.0902 25.544C18.6039 25.2657 16.1685 24.3733 14.0134 22.8982C13.7 22.6837 13.6199 22.2558 13.8343 21.9425Z" fill="white"/>
</svg>
